<?xml version="1.0" encoding="iso-8859-1"?>
<!-- Generator: Adobe Illustrator 19.0.0, SVG Export Plug-In . SVG Version: 6.00 Build 0)  -->
<svg version="1.1" id="Capa_1" xmlns="http://www.w3.org/2000/svg" xmlns:xlink="http://www.w3.org/1999/xlink" x="0px" y="0px"
	 viewBox="0 0 512.001 512.001" style="enable-background:new 0 0 512.001 512.001;" xml:space="preserve">
<g>
	<g>
		<path d="M376.001,332h-30c-8.284,0-15,6.716-15,15s6.716,15,15,15h30c8.284,0,15-6.716,15-15S384.285,332,376.001,332z"/>
	</g>
</g>
<g>
	<g>
		<path d="M166.001,332h-30c-8.284,0-15,6.716-15,15s6.716,15,15,15h30c8.284,0,15-6.716,15-15S174.285,332,166.001,332z"/>
	</g>
</g>
<g>
	<g>
		<path d="M475.79,485.634l-77.727-66.951c30.622-9.442,52.938-38.004,52.938-71.683V135c0-41.355-33.645-75-75-75h-20.73
			l-17.562-35.124C330.038,9.532,314.616,0,297.46,0h-82.918c-17.156,0-32.579,9.532-40.249,24.875L156.73,60h-20.73
			c-41.355,0-75,33.645-75,75v212c0,33.679,22.316,62.24,52.938,71.684l-77.727,66.951c-6.277,5.407-6.982,14.878-1.576,21.155
			c5.409,6.279,14.88,6.981,21.154,1.576L86.399,482h339.204l30.609,26.365c6.276,5.407,15.747,4.701,21.154-1.576
			C482.772,500.512,482.067,491.041,475.79,485.634z M201.126,38.291c2.557-5.114,7.697-8.291,13.416-8.291h82.918
			c5.718,0,10.858,3.177,13.416,8.292L321.731,60H190.272L201.126,38.291z M136.001,89.9h29.928c0.02,0,0.04,0.003,0.06,0.003
			c0.033,0,0.066-0.003,0.099-0.003h209.913c19.555,0,36.228,12.642,42.42,30.1H96.001h-2.42
			C99.773,102.542,116.446,89.9,136.001,89.9z M413.99,149.95l-36.83,93.763C370.286,260.896,353.887,272,335.379,272H176.622
			c-18.508,0-34.907-11.104-41.747-28.203L98.013,149.95H413.99z M91.001,347V214.178l15.985,40.675
			C118.443,283.494,145.776,302,176.622,302h158.757c30.847,0,58.18-18.506,69.669-47.23l15.953-40.593V347
			c0,24.813-20.187,45-45,45h-75v-15c0-24.813-20.188-45-45.001-45c-24.812,0-44.999,20.187-44.999,45v15h-75
			C111.188,392,91.001,371.813,91.001,347z M271.001,377v15h-30v-15c0-8.271,6.729-15,14.999-15
			C264.271,362,271.001,368.729,271.001,377z M121.227,452l34.829-30h199.89l34.829,30H121.227z"/>
	</g>
</g>
<g>
</g>
<g>
</g>
<g>
</g>
<g>
</g>
<g>
</g>
<g>
</g>
<g>
</g>
<g>
</g>
<g>
</g>
<g>
</g>
<g>
</g>
<g>
</g>
<g>
</g>
<g>
</g>
<g>
</g>
</svg>
