<svg enable-background="new 0 0 297 297" version="1.1" viewBox="0 0 520 520" xml:space="preserve" xmlns="http://www.w3.org/2000/svg">
	<path d="M411 357c0 8.285-6.715 15-15 15s-15-6.715-15-15 6.715-15 15-15 15 6.715 15 15zm-280 0c0 8.285-6.715 15-15 15s-15-6.715-15-15 6.715-15 15-15 15 6.715 15 15zm0 0"/>
	<path d="M191 357c0 8.285 6.715 15 15 15h100c8.285 0 15-6.715 15-15s-6.715-15-15-15H206c-8.285 0-15 6.715-15 15zm306-180h-26V55c0-30.328-24.672-55-55-55H96C65.672 0 41 24.672 41 55v122H15c-8.285 0-15 6.715-15 15s6.715 15 15 15h26v210c0 8.285 6.715 15 15 15h5v45c0 19.3 15.7 35 35 35h40c19.3 0 35-15.7 35-35v-45h170v45c0 19.3 15.7 35 35 35h40c19.3 0 35-15.7 35-35v-45h5c8.285 0 15-6.715 15-15V207h26c8.285 0 15-6.715 15-15s-6.715-15-15-15zm-56 225H71v-90h370zm0-120H271V150h170zM291 120h-70V95c0-2.758 2.242-5 5-5h60c2.758 0 5 2.242 5 5zm-50 30v132H71V150zM96 30h320c13.785 0 25 11.215 25 25v65H321V95c0-19.3-15.7-35-35-35h-60c-19.3 0-35 15.7-35 35v25H71V55c0-13.785 11.215-25 25-25zm45 447c0 2.758-2.242 5-5 5H96c-2.758 0-5-2.242-5-5v-45h50zm280 0c0 2.758-2.242 5-5 5h-40c-2.758 0-5-2.242-5-5v-45h50zm0 0"/>
</svg>